<svg width="187" height="48" viewBox="0 0 187 48" fill="none" xmlns="http://www.w3.org/2000/svg">
<path fill-rule="evenodd" clip-rule="evenodd" d="M47.875 16.3078C47.875 17.5824 46.8956 18.6157 45.6875 18.6157C44.8235 18.6157 44.0764 18.0871 43.721 17.3198L40.871 18.0127C40.8736 18.0594 40.875 18.1066 40.875 18.1541C40.875 19.4286 39.8956 20.4619 38.6875 20.4619C38.2541 20.4619 37.8502 20.3289 37.5103 20.0996L35.5703 22.3727C35.6059 22.4984 35.625 22.6317 35.625 22.7696C35.625 23.1249 35.4982 23.4489 35.2898 23.694L36.7288 25.3801C37.0482 25.1875 37.4182 25.0774 37.8125 25.0774C39.0206 25.0774 40 26.1107 40 27.3852C40 28.6598 39.0206 29.6931 37.8125 29.6931C36.6044 29.6931 35.625 28.6598 35.625 27.3852C35.625 26.8993 35.7673 26.4485 36.0104 26.0766L34.3688 24.1531C34.3501 24.1539 34.3313 24.1543 34.3125 24.1543C33.5876 24.1543 33 23.5344 33 22.7696C33 22.0049 33.5876 21.3849 34.3125 21.3849C34.5444 21.3849 34.7622 21.4484 34.9513 21.5597L36.8247 19.3646C36.6188 19.0127 36.5 18.598 36.5 18.1541C36.5 16.8795 37.4794 15.8462 38.6875 15.8462C39.5157 15.8462 40.2364 16.3318 40.6078 17.0478L43.5003 16.3446L43.5 16.3078C43.5 15.0333 44.4794 14 45.6875 14C46.8956 14 47.875 15.0333 47.875 16.3078ZM55.0415 28.1879L53.1517 25.9736L53.0092 26.109C53.0836 25.9353 53.125 25.7425 53.125 25.5395C53.125 24.7748 52.5374 24.1548 51.8125 24.1548H52.25V19.4921C53.2485 19.2783 54 18.3469 54 17.2304C54 15.9558 53.0206 14.9226 51.8125 14.9226C50.6044 14.9226 49.625 15.9558 49.625 17.2304C49.625 18.2998 50.3145 19.1994 51.25 19.4612V24.1548H51.8125C51.0876 24.1548 50.5 24.7748 50.5 25.5395C50.5 26.3043 51.0876 26.9242 51.8125 26.9242C52.0579 26.9242 52.2876 26.8532 52.484 26.7295L54.3448 28.9098C54.1266 29.2689 54 29.6959 54 30.1541C54 31.4286 54.9794 32.4619 56.1875 32.4619C57.3956 32.4619 58.375 31.4286 58.375 30.1541C58.375 28.8795 57.3956 27.8462 56.1875 27.8462C55.7673 27.8462 55.3748 27.9712 55.0415 28.1879ZM56.3697 22.2938C56.3101 22.3025 56.2493 22.307 56.1875 22.307C55.4626 22.307 54.875 21.6871 54.875 20.9223C54.875 20.1576 55.4626 19.5376 56.1875 19.5376C56.9124 19.5376 57.5 20.1576 57.5 20.9223C57.5 21.2388 57.3994 21.5305 57.23 21.7637L59.2617 24.1442L59.0924 24.305C59.271 24.209 59.4733 24.1548 59.6875 24.1548C60.4124 24.1548 61 24.7748 61 25.5395C61 26.3043 60.4124 26.9242 59.6875 26.9242C58.9626 26.9242 58.375 26.3043 58.375 25.5395C58.375 25.2615 58.4527 25.0027 58.5863 24.7858L58.5367 24.8329L56.3697 22.2938ZM45.9252 27.0986L44.5017 25.4308C44.9603 25.0078 45.25 24.386 45.25 23.6928C45.25 22.4182 44.2706 21.3849 43.0625 21.3849C41.8544 21.3849 40.875 22.4182 40.875 23.6928C40.875 24.9674 41.8544 26.0006 43.0625 26.0006C43.2524 26.0006 43.4367 25.9751 43.6125 25.9271L45.3053 27.9105C45.2693 28.0369 45.25 28.1708 45.25 28.3094C45.25 28.5269 45.2975 28.7326 45.3822 28.9157L43.7545 30.8229C43.5536 30.6912 43.3165 30.6151 43.0625 30.6151C42.3376 30.6151 41.75 31.235 41.75 31.9998C41.75 32.7645 42.3376 33.3845 43.0625 33.3845C43.7874 33.3845 44.375 32.7645 44.375 31.9998C44.375 31.8884 44.3625 31.78 44.339 31.6763L46.1046 29.6075C46.2471 29.6635 46.4014 29.6941 46.5625 29.6941C47.2874 29.6941 47.875 29.0742 47.875 28.3094C47.875 27.5447 47.2874 26.9247 46.5625 26.9247C46.3312 26.9247 46.1139 26.9878 45.9252 27.0986ZM49.625 20.9223C49.625 21.6871 49.0374 22.307 48.3125 22.307C47.5876 22.307 47 21.6871 47 20.9223C47 20.1576 47.5876 19.5376 48.3125 19.5376C49.0374 19.5376 49.625 20.1576 49.625 20.9223ZM53.1367 35.2227L51.1046 32.8416C51.2742 32.6084 51.375 32.3165 51.375 31.9998C51.375 31.235 50.7874 30.6151 50.0625 30.6151C49.3376 30.6151 48.75 31.235 48.75 31.9998C48.75 32.7645 49.3376 33.3845 50.0625 33.3845C50.124 33.3845 50.1846 33.38 50.2439 33.3713L52.4117 35.9114L52.4566 35.8687C52.3258 36.084 52.25 36.3401 52.25 36.6148C52.25 37.3796 52.8376 37.9995 53.5625 37.9995C54.2874 37.9995 54.875 37.3796 54.875 36.6148C54.875 35.8501 54.2874 35.2301 53.5625 35.2301C53.3513 35.2301 53.1518 35.2827 52.9751 35.3762L53.1367 35.2227Z" fill="url(#paint0_linear_294_9798)"/>
<path d="M14.304 23.576C15.4987 23.7893 16.512 24.4187 17.344 25.464C18.176 26.5093 18.592 27.6933 18.592 29.016C18.592 30.1467 18.2933 31.1707 17.696 32.088C17.12 32.984 16.2773 33.6987 15.168 34.232C14.0587 34.744 12.768 35 11.296 35H2.4V12.76H10.88C12.3947 12.76 13.696 13.016 14.784 13.528C15.872 14.04 16.6933 14.7333 17.248 15.608C17.8027 16.4613 18.08 17.4213 18.08 18.488C18.08 19.768 17.7387 20.8347 17.056 21.688C16.3733 22.5413 15.456 23.1707 14.304 23.576ZM6.048 22.104H10.56C11.7547 22.104 12.6827 21.8373 13.344 21.304C14.0267 20.7493 14.368 19.96 14.368 18.936C14.368 17.9333 14.0267 17.1547 13.344 16.6C12.6827 16.024 11.7547 15.736 10.56 15.736H6.048V22.104ZM10.976 32.024C12.2133 32.024 13.184 31.7253 13.888 31.128C14.592 30.5307 14.944 29.6987 14.944 28.632C14.944 27.544 14.5707 26.68 13.824 26.04C13.0773 25.4 12.0853 25.08 10.848 25.08H6.048V32.024H10.976ZM26.2043 19.928C26.7376 19.032 27.4416 18.3387 28.3163 17.848C29.2123 17.336 30.2683 17.08 31.4843 17.08V20.856H30.5563C29.1269 20.856 28.0389 21.2187 27.2923 21.944C26.5669 22.6693 26.2043 23.928 26.2043 25.72V35H22.5563V17.368H26.2043V19.928Z" fill="#02191A"/>
<path d="M66.256 15.032C65.5947 15.032 65.04 14.808 64.592 14.36C64.144 13.912 63.92 13.3573 63.92 12.696C63.92 12.0347 64.144 11.48 64.592 11.032C65.04 10.584 65.5947 10.36 66.256 10.36C66.896 10.36 67.44 10.584 67.888 11.032C68.336 11.48 68.56 12.0347 68.56 12.696C68.56 13.3573 68.336 13.912 67.888 14.36C67.44 14.808 66.896 15.032 66.256 15.032ZM68.048 17.368V35H64.4V17.368H68.048ZM81.7335 17.08C83.1202 17.08 84.3575 17.368 85.4455 17.944C86.5548 18.52 87.4188 19.3733 88.0375 20.504C88.6562 21.6347 88.9655 23 88.9655 24.6V35H85.3495V25.144C85.3495 23.5653 84.9548 22.36 84.1655 21.528C83.3762 20.6747 82.2988 20.248 80.9335 20.248C79.5682 20.248 78.4802 20.6747 77.6695 21.528C76.8802 22.36 76.4855 23.5653 76.4855 25.144V35H72.8375V17.368H76.4855V19.384C77.0828 18.6587 77.8402 18.0933 78.7575 17.688C79.6962 17.2827 80.6882 17.08 81.7335 17.08ZM109.715 19.16C109.139 18.0507 108.339 17.2187 107.315 16.664C106.291 16.088 105.107 15.8 103.763 15.8C102.291 15.8 100.979 16.1307 99.8268 16.792C98.6748 17.4533 97.7681 18.392 97.1068 19.608C96.4668 20.824 96.1468 22.232 96.1468 23.832C96.1468 25.432 96.4668 26.8507 97.1068 28.088C97.7681 29.304 98.6748 30.2427 99.8268 30.904C100.979 31.5653 102.291 31.896 103.763 31.896C105.747 31.896 107.357 31.3413 108.595 30.232C109.832 29.1227 110.589 27.6187 110.867 25.72H102.515V22.808H114.771V25.656C114.536 27.384 113.917 28.9733 112.915 30.424C111.933 31.8747 110.643 33.0373 109.043 33.912C107.464 34.7653 105.704 35.192 103.763 35.192C101.672 35.192 99.7628 34.712 98.0348 33.752C96.3068 32.7707 94.9308 31.416 93.9068 29.688C92.9041 27.96 92.4028 26.008 92.4028 23.832C92.4028 21.656 92.9041 19.704 93.9068 17.976C94.9308 16.248 96.3068 14.904 98.0348 13.944C99.7841 12.9627 101.693 12.472 103.763 12.472C106.131 12.472 108.232 13.0587 110.067 14.232C111.923 15.384 113.267 17.0267 114.099 19.16H109.715ZM126.017 35.288C124.353 35.288 122.849 34.9147 121.505 34.168C120.161 33.4 119.105 32.3333 118.337 30.968C117.569 29.5813 117.185 27.9813 117.185 26.168C117.185 24.376 117.579 22.7867 118.369 21.4C119.158 20.0133 120.235 18.9467 121.601 18.2C122.966 17.4533 124.491 17.08 126.177 17.08C127.862 17.08 129.387 17.4533 130.753 18.2C132.118 18.9467 133.195 20.0133 133.985 21.4C134.774 22.7867 135.169 24.376 135.169 26.168C135.169 27.96 134.763 29.5493 133.953 30.936C133.142 32.3227 132.033 33.4 130.625 34.168C129.238 34.9147 127.702 35.288 126.017 35.288ZM126.017 32.12C126.955 32.12 127.83 31.896 128.641 31.448C129.473 31 130.145 30.328 130.657 29.432C131.169 28.536 131.425 27.448 131.425 26.168C131.425 24.888 131.179 23.8107 130.689 22.936C130.198 22.04 129.547 21.368 128.737 20.92C127.926 20.472 127.051 20.248 126.113 20.248C125.174 20.248 124.299 20.472 123.489 20.92C122.699 21.368 122.07 22.04 121.601 22.936C121.131 23.8107 120.897 24.888 120.897 26.168C120.897 28.0667 121.377 29.5387 122.337 30.584C123.318 31.608 124.545 32.12 126.017 32.12Z" fill="#02191A"/>
<path d="M162.199 12.76V35H158.551V19.768L151.767 35H149.239L142.423 19.768V35H138.775V12.76H142.711L150.519 30.2L158.295 12.76H162.199ZM174.642 35.288C172.978 35.288 171.474 34.9147 170.13 34.168C168.786 33.4 167.73 32.3333 166.962 30.968C166.194 29.5813 165.81 27.9813 165.81 26.168C165.81 24.376 166.204 22.7867 166.994 21.4C167.783 20.0133 168.86 18.9467 170.226 18.2C171.591 17.4533 173.116 17.08 174.802 17.08C176.487 17.08 178.012 17.4533 179.378 18.2C180.743 18.9467 181.82 20.0133 182.61 21.4C183.399 22.7867 183.794 24.376 183.794 26.168C183.794 27.96 183.388 29.5493 182.578 30.936C181.767 32.3227 180.658 33.4 179.25 34.168C177.863 34.9147 176.327 35.288 174.642 35.288ZM174.642 32.12C175.58 32.12 176.455 31.896 177.266 31.448C178.098 31 178.77 30.328 179.282 29.432C179.794 28.536 180.05 27.448 180.05 26.168C180.05 24.888 179.804 23.8107 179.314 22.936C178.823 22.04 178.172 21.368 177.362 20.92C176.551 20.472 175.676 20.248 174.738 20.248C173.799 20.248 172.924 20.472 172.114 20.92C171.324 21.368 170.695 22.04 170.226 22.936C169.756 23.8107 169.522 24.888 169.522 26.168C169.522 28.0667 170.002 29.5387 170.962 30.584C171.943 31.608 173.17 32.12 174.642 32.12Z" fill="#00979B"/>
<defs>
<linearGradient id="paint0_linear_294_9798" x1="35.0741" y1="19.9134" x2="52.6894" y2="37.6632" gradientUnits="userSpaceOnUse">
<stop stop-color="#00B2A0"/>
<stop offset="0.279509" stop-color="#00979B"/>
<stop offset="0.534722" stop-color="#007B8C"/>
<stop offset="0.763893" stop-color="#216175"/>
<stop offset="1" stop-color="#2F4858"/>
</linearGradient>
</defs>
</svg>
