<svg width="180" height="24" viewBox="0 0 180 24" fill="none" xmlns="http://www.w3.org/2000/svg">
<path d="M9.032 18.9544C7.752 18.9544 6.56 18.7464 5.456 18.3304C4.368 17.8984 3.416 17.2984 2.6 16.5304C1.8 15.7464 1.176 14.8264 0.728 13.7704C0.28 12.7144 0.0560001 11.5624 0.0560001 10.3144C0.0560001 9.06635 0.28 7.91435 0.728 6.85836C1.176 5.80236 1.808 4.89036 2.624 4.12235C3.44 3.33836 4.392 2.73836 5.48 2.32235C6.568 1.89035 7.76 1.67435 9.056 1.67435C10.432 1.67435 11.688 1.91435 12.824 2.39436C13.96 2.85836 14.92 3.55435 15.704 4.48235L13.688 6.37836C13.08 5.72236 12.4 5.23435 11.648 4.91435C10.896 4.57835 10.08 4.41036 9.2 4.41036C8.32 4.41036 7.512 4.55436 6.776 4.84236C6.056 5.13036 5.424 5.53836 4.88 6.06636C4.352 6.59436 3.936 7.21835 3.632 7.93835C3.344 8.65835 3.2 9.45036 3.2 10.3144C3.2 11.1784 3.344 11.9704 3.632 12.6904C3.936 13.4104 4.352 14.0344 4.88 14.5624C5.424 15.0904 6.056 15.4984 6.776 15.7864C7.512 16.0744 8.32 16.2184 9.2 16.2184C10.08 16.2184 10.896 16.0584 11.648 15.7384C12.4 15.4024 13.08 14.8984 13.688 14.2264L15.704 16.1464C14.92 17.0584 13.96 17.7544 12.824 18.2344C11.688 18.7144 10.424 18.9544 9.032 18.9544ZM23.6733 18.8824C22.3613 18.8824 21.1933 18.6024 20.1693 18.0424C19.1453 17.4664 18.3373 16.6824 17.7453 15.6904C17.1533 14.6984 16.8573 13.5704 16.8573 12.3064C16.8573 11.0264 17.1533 9.89836 17.7453 8.92235C18.3373 7.93035 19.1453 7.15436 20.1693 6.59436C21.1933 6.03436 22.3613 5.75435 23.6733 5.75435C25.0013 5.75435 26.1773 6.03436 27.2013 6.59436C28.2413 7.15436 29.0493 7.92235 29.6253 8.89836C30.2173 9.87436 30.5133 11.0104 30.5133 12.3064C30.5133 13.5704 30.2173 14.6984 29.6253 15.6904C29.0493 16.6824 28.2413 17.4664 27.2013 18.0424C26.1773 18.6024 25.0013 18.8824 23.6733 18.8824ZM23.6733 16.3144C24.4093 16.3144 25.0653 16.1544 25.6413 15.8344C26.2173 15.5144 26.6653 15.0504 26.9853 14.4424C27.3213 13.8344 27.4893 13.1224 27.4893 12.3064C27.4893 11.4744 27.3213 10.7624 26.9853 10.1704C26.6653 9.56236 26.2173 9.09835 25.6413 8.77835C25.0653 8.45835 24.4173 8.29836 23.6973 8.29836C22.9613 8.29836 22.3053 8.45835 21.7293 8.77835C21.1693 9.09835 20.7213 9.56236 20.3853 10.1704C20.0493 10.7624 19.8813 11.4744 19.8813 12.3064C19.8813 13.1224 20.0493 13.8344 20.3853 14.4424C20.7213 15.0504 21.1693 15.5144 21.7293 15.8344C22.3053 16.1544 22.9533 16.3144 23.6733 16.3144ZM49.5581 5.75435C50.5821 5.75435 51.4861 5.95435 52.2701 6.35435C53.0701 6.75435 53.6941 7.37036 54.1421 8.20235C54.5901 9.01835 54.8141 10.0744 54.8141 11.3704V18.7144H51.8141V11.7544C51.8141 10.6184 51.5661 9.77035 51.0701 9.21035C50.5741 8.65035 49.8621 8.37035 48.9341 8.37035C48.2781 8.37035 47.6941 8.51435 47.1821 8.80236C46.6861 9.09036 46.2941 9.51436 46.0061 10.0744C45.7341 10.6344 45.5981 11.3464 45.5981 12.2104V18.7144H42.5981V11.7544C42.5981 10.6184 42.3501 9.77035 41.8541 9.21035C41.3581 8.65035 40.6461 8.37035 39.7181 8.37035C39.0621 8.37035 38.4781 8.51435 37.9661 8.80236C37.4701 9.09036 37.0781 9.51436 36.7901 10.0744C36.5181 10.6344 36.3821 11.3464 36.3821 12.2104V18.7144H33.3821V5.89835H36.2381V9.30635L35.7341 8.29836C36.1661 7.46635 36.7901 6.83435 37.6061 6.40236C38.4381 5.97036 39.3821 5.75435 40.4381 5.75435C41.6381 5.75435 42.6781 6.05035 43.5581 6.64235C44.4541 7.23435 45.0461 8.13035 45.3341 9.33035L44.1581 8.92235C44.5741 7.96235 45.2621 7.19436 46.2221 6.61836C47.1821 6.04236 48.2941 5.75435 49.5581 5.75435ZM58.6477 18.7144V5.89835H61.6477V18.7144H58.6477ZM60.1597 3.78635C59.5997 3.78635 59.1357 3.61035 58.7677 3.25835C58.4157 2.90635 58.2397 2.48236 58.2397 1.98635C58.2397 1.47435 58.4157 1.05035 58.7677 0.714354C59.1357 0.362355 59.5997 0.186355 60.1597 0.186355C60.7197 0.186355 61.1757 0.354355 61.5277 0.690354C61.8957 1.01035 62.0797 1.41835 62.0797 1.91435C62.0797 2.44235 61.9037 2.89035 61.5517 3.25835C61.1997 3.61035 60.7357 3.78635 60.1597 3.78635ZM72.8572 5.75435C73.8812 5.75435 74.7932 5.95435 75.5932 6.35435C76.4092 6.75435 77.0492 7.37036 77.5132 8.20235C77.9772 9.01835 78.2092 10.0744 78.2092 11.3704V18.7144H75.2092V11.7544C75.2092 10.6184 74.9372 9.77035 74.3932 9.21035C73.8652 8.65035 73.1212 8.37035 72.1612 8.37035C71.4572 8.37035 70.8332 8.51435 70.2892 8.80236C69.7452 9.09036 69.3212 9.52236 69.0172 10.0984C68.7292 10.6584 68.5852 11.3704 68.5852 12.2344V18.7144H65.5852V5.89835H68.4412V9.35436L67.9372 8.29836C68.3852 7.48236 69.0332 6.85836 69.8812 6.42635C70.7452 5.97835 71.7372 5.75435 72.8572 5.75435ZM87.8463 23.5384C86.6623 23.5384 85.5023 23.3784 84.3663 23.0584C83.2463 22.7544 82.3263 22.3064 81.6063 21.7144L82.9503 19.4584C83.5103 19.9224 84.2143 20.2904 85.0623 20.5624C85.9263 20.8504 86.7983 20.9944 87.6783 20.9944C89.0863 20.9944 90.1183 20.6664 90.7743 20.0104C91.4303 19.3704 91.7583 18.4024 91.7583 17.1064V14.8264L91.9983 11.9224L91.9023 9.01836V5.89835H94.7583V16.7704C94.7583 19.0904 94.1663 20.7944 92.9823 21.8824C91.7983 22.9864 90.0863 23.5384 87.8463 23.5384ZM87.4623 18.1384C86.2463 18.1384 85.1423 17.8824 84.1503 17.3704C83.1743 16.8424 82.3983 16.1144 81.8223 15.1864C81.2623 14.2584 80.9823 13.1704 80.9823 11.9224C80.9823 10.6904 81.2623 9.61036 81.8223 8.68236C82.3983 7.75436 83.1743 7.03436 84.1503 6.52236C85.1423 6.01035 86.2463 5.75435 87.4623 5.75435C88.5503 5.75435 89.5263 5.97036 90.3903 6.40236C91.2543 6.83435 91.9423 7.50635 92.4543 8.41835C92.9823 9.33036 93.2463 10.4984 93.2463 11.9224C93.2463 13.3464 92.9823 14.5224 92.4543 15.4504C91.9423 16.3624 91.2543 17.0424 90.3903 17.4904C89.5263 17.9224 88.5503 18.1384 87.4623 18.1384ZM87.9183 15.5944C88.6703 15.5944 89.3423 15.4424 89.9343 15.1384C90.5263 14.8184 90.9823 14.3864 91.3023 13.8424C91.6383 13.2824 91.8063 12.6424 91.8063 11.9224C91.8063 11.2024 91.6383 10.5704 91.3023 10.0264C90.9823 9.46636 90.5263 9.04236 89.9343 8.75435C89.3423 8.45036 88.6703 8.29836 87.9183 8.29836C87.1663 8.29836 86.4863 8.45036 85.8783 8.75435C85.2863 9.04236 84.8223 9.46636 84.4863 10.0264C84.1663 10.5704 84.0063 11.2024 84.0063 11.9224C84.0063 12.6424 84.1663 13.2824 84.4863 13.8424C84.8223 14.3864 85.2863 14.8184 85.8783 15.1384C86.4863 15.4424 87.1663 15.5944 87.9183 15.5944ZM109.295 18.8824C108.223 18.8824 107.191 18.7464 106.199 18.4744C105.223 18.1864 104.447 17.8424 103.871 17.4424L105.023 15.1624C105.599 15.5304 106.287 15.8344 107.087 16.0744C107.887 16.3144 108.687 16.4344 109.487 16.4344C110.431 16.4344 111.111 16.3064 111.527 16.0504C111.959 15.7944 112.175 15.4504 112.175 15.0184C112.175 14.6664 112.031 14.4024 111.743 14.2264C111.455 14.0344 111.079 13.8904 110.615 13.7944C110.151 13.6984 109.631 13.6104 109.055 13.5304C108.495 13.4504 107.927 13.3464 107.351 13.2184C106.791 13.0744 106.279 12.8744 105.815 12.6184C105.351 12.3464 104.975 11.9864 104.687 11.5384C104.399 11.0904 104.255 10.4984 104.255 9.76235C104.255 8.94635 104.487 8.24235 104.951 7.65035C105.415 7.04236 106.063 6.57835 106.895 6.25835C107.743 5.92235 108.743 5.75435 109.895 5.75435C110.759 5.75435 111.631 5.85036 112.511 6.04236C113.391 6.23435 114.119 6.50635 114.695 6.85836L113.543 9.13836C112.935 8.77035 112.319 8.52236 111.695 8.39436C111.087 8.25036 110.479 8.17836 109.871 8.17836C108.959 8.17836 108.279 8.31436 107.831 8.58635C107.399 8.85835 107.183 9.20235 107.183 9.61836C107.183 10.0024 107.327 10.2904 107.615 10.4824C107.903 10.6744 108.279 10.8264 108.743 10.9384C109.207 11.0504 109.719 11.1464 110.279 11.2264C110.855 11.2904 111.423 11.3944 111.983 11.5384C112.543 11.6824 113.055 11.8824 113.519 12.1384C113.999 12.3784 114.383 12.7224 114.671 13.1704C114.959 13.6184 115.103 14.2024 115.103 14.9224C115.103 15.7224 114.863 16.4184 114.383 17.0104C113.919 17.6024 113.255 18.0664 112.391 18.4024C111.527 18.7224 110.495 18.8824 109.295 18.8824ZM123.447 18.8824C122.135 18.8824 120.967 18.6024 119.943 18.0424C118.919 17.4664 118.111 16.6824 117.519 15.6904C116.927 14.6984 116.631 13.5704 116.631 12.3064C116.631 11.0264 116.927 9.89836 117.519 8.92235C118.111 7.93035 118.919 7.15436 119.943 6.59436C120.967 6.03436 122.135 5.75435 123.447 5.75435C124.775 5.75435 125.951 6.03436 126.975 6.59436C128.015 7.15436 128.823 7.92235 129.399 8.89836C129.991 9.87436 130.287 11.0104 130.287 12.3064C130.287 13.5704 129.991 14.6984 129.399 15.6904C128.823 16.6824 128.015 17.4664 126.975 18.0424C125.951 18.6024 124.775 18.8824 123.447 18.8824ZM123.447 16.3144C124.183 16.3144 124.839 16.1544 125.415 15.8344C125.991 15.5144 126.439 15.0504 126.759 14.4424C127.095 13.8344 127.263 13.1224 127.263 12.3064C127.263 11.4744 127.095 10.7624 126.759 10.1704C126.439 9.56236 125.991 9.09835 125.415 8.77835C124.839 8.45835 124.191 8.29836 123.471 8.29836C122.735 8.29836 122.079 8.45835 121.503 8.77835C120.943 9.09835 120.495 9.56236 120.159 10.1704C119.823 10.7624 119.655 11.4744 119.655 12.3064C119.655 13.1224 119.823 13.8344 120.159 14.4424C120.495 15.0504 120.943 15.5144 121.503 15.8344C122.079 16.1544 122.727 16.3144 123.447 16.3144ZM138.916 18.8824C137.604 18.8824 136.436 18.6024 135.412 18.0424C134.388 17.4664 133.58 16.6824 132.988 15.6904C132.396 14.6984 132.1 13.5704 132.1 12.3064C132.1 11.0264 132.396 9.89836 132.988 8.92235C133.58 7.93035 134.388 7.15436 135.412 6.59436C136.436 6.03436 137.604 5.75435 138.916 5.75435C140.244 5.75435 141.42 6.03436 142.444 6.59436C143.484 7.15436 144.292 7.92235 144.868 8.89836C145.46 9.87436 145.756 11.0104 145.756 12.3064C145.756 13.5704 145.46 14.6984 144.868 15.6904C144.292 16.6824 143.484 17.4664 142.444 18.0424C141.42 18.6024 140.244 18.8824 138.916 18.8824ZM138.916 16.3144C139.652 16.3144 140.308 16.1544 140.884 15.8344C141.46 15.5144 141.908 15.0504 142.228 14.4424C142.564 13.8344 142.732 13.1224 142.732 12.3064C142.732 11.4744 142.564 10.7624 142.228 10.1704C141.908 9.56236 141.46 9.09835 140.884 8.77835C140.308 8.45835 139.66 8.29836 138.94 8.29836C138.204 8.29836 137.548 8.45835 136.972 8.77835C136.412 9.09835 135.964 9.56236 135.628 10.1704C135.292 10.7624 135.124 11.4744 135.124 12.3064C135.124 13.1224 135.292 13.8344 135.628 14.4424C135.964 15.0504 136.412 15.5144 136.972 15.8344C137.548 16.1544 138.196 16.3144 138.916 16.3144ZM155.896 5.75435C156.92 5.75435 157.832 5.95435 158.632 6.35435C159.448 6.75435 160.088 7.37036 160.552 8.20235C161.016 9.01835 161.248 10.0744 161.248 11.3704V18.7144H158.248V11.7544C158.248 10.6184 157.976 9.77035 157.432 9.21035C156.904 8.65035 156.16 8.37035 155.2 8.37035C154.496 8.37035 153.872 8.51435 153.328 8.80236C152.784 9.09036 152.36 9.52236 152.056 10.0984C151.768 10.6584 151.624 11.3704 151.624 12.2344V18.7144H148.624V5.89835H151.48V9.35436L150.976 8.29836C151.424 7.48236 152.072 6.85836 152.92 6.42635C153.784 5.97835 154.776 5.75435 155.896 5.75435ZM166.014 18.8824C165.47 18.8824 165.006 18.6984 164.622 18.3304C164.238 17.9464 164.046 17.4664 164.046 16.8904C164.046 16.2824 164.238 15.8024 164.622 15.4504C165.006 15.0824 165.47 14.8984 166.014 14.8984C166.558 14.8984 167.022 15.0824 167.406 15.4504C167.79 15.8024 167.982 16.2824 167.982 16.8904C167.982 17.4664 167.79 17.9464 167.406 18.3304C167.022 18.6984 166.558 18.8824 166.014 18.8824ZM171.873 18.8824C171.329 18.8824 170.865 18.6984 170.481 18.3304C170.097 17.9464 169.905 17.4664 169.905 16.8904C169.905 16.2824 170.097 15.8024 170.481 15.4504C170.865 15.0824 171.329 14.8984 171.873 14.8984C172.417 14.8984 172.881 15.0824 173.265 15.4504C173.649 15.8024 173.841 16.2824 173.841 16.8904C173.841 17.4664 173.649 17.9464 173.265 18.3304C172.881 18.6984 172.417 18.8824 171.873 18.8824ZM177.733 18.8824C177.189 18.8824 176.725 18.6984 176.341 18.3304C175.957 17.9464 175.765 17.4664 175.765 16.8904C175.765 16.2824 175.957 15.8024 176.341 15.4504C176.725 15.0824 177.189 14.8984 177.733 14.8984C178.277 14.8984 178.741 15.0824 179.125 15.4504C179.509 15.8024 179.701 16.2824 179.701 16.8904C179.701 17.4664 179.509 17.9464 179.125 18.3304C178.741 18.6984 178.277 18.8824 177.733 18.8824Z" fill="url(#paint0_linear_411_2169)"/>
<defs>
<linearGradient id="paint0_linear_411_2169" x1="12.4815" y1="2.85989" x2="20.0773" y2="44.031" gradientUnits="userSpaceOnUse">
<stop stop-color="#00B2A0"/>
<stop offset="0.279509" stop-color="#00979B"/>
<stop offset="0.534722" stop-color="#007B8C"/>
<stop offset="0.763893" stop-color="#216175"/>
<stop offset="1" stop-color="#2F4858"/>
</linearGradient>
</defs>
</svg>
