<svg width="371" height="82" viewBox="0 0 371 82" fill="none" xmlns="http://www.w3.org/2000/svg">
<path d="M258.031 79.12C257.375 79.12 256.771 79.012 256.219 78.796C255.667 78.58 255.187 78.28 254.779 77.896C254.371 77.504 254.055 77.048 253.831 76.528C253.607 76 253.495 75.424 253.495 74.8C253.495 74.176 253.607 73.604 253.831 73.084C254.055 72.556 254.371 72.1 254.779 71.716C255.187 71.324 255.667 71.02 256.219 70.804C256.771 70.588 257.371 70.48 258.019 70.48C258.675 70.48 259.275 70.588 259.819 70.804C260.371 71.02 260.851 71.324 261.259 71.716C261.667 72.1 261.983 72.556 262.207 73.084C262.431 73.604 262.543 74.176 262.543 74.8C262.543 75.424 262.431 76 262.207 76.528C261.983 77.056 261.667 77.512 261.259 77.896C260.851 78.28 260.371 78.58 259.819 78.796C259.275 79.012 258.679 79.12 258.031 79.12ZM258.019 77.752C258.443 77.752 258.835 77.68 259.195 77.536C259.555 77.392 259.867 77.188 260.131 76.924C260.395 76.652 260.599 76.34 260.743 75.988C260.895 75.628 260.971 75.232 260.971 74.8C260.971 74.368 260.895 73.976 260.743 73.624C260.599 73.264 260.395 72.952 260.131 72.688C259.867 72.416 259.555 72.208 259.195 72.064C258.835 71.92 258.443 71.848 258.019 71.848C257.595 71.848 257.203 71.92 256.843 72.064C256.491 72.208 256.179 72.416 255.907 72.688C255.643 72.952 255.435 73.264 255.283 73.624C255.139 73.976 255.067 74.368 255.067 74.8C255.067 75.224 255.139 75.616 255.283 75.976C255.435 76.336 255.643 76.652 255.907 76.924C256.171 77.188 256.483 77.392 256.843 77.536C257.203 77.68 257.595 77.752 258.019 77.752ZM267.688 72.52C268.2 72.52 268.656 72.62 269.056 72.82C269.464 73.02 269.784 73.328 270.016 73.744C270.248 74.152 270.364 74.68 270.364 75.328V79H268.864V75.52C268.864 74.952 268.728 74.528 268.456 74.248C268.192 73.968 267.82 73.828 267.34 73.828C266.988 73.828 266.676 73.9 266.404 74.044C266.132 74.188 265.92 74.404 265.768 74.692C265.624 74.972 265.552 75.328 265.552 75.76V79H264.052V72.592H265.48V74.32L265.228 73.792C265.452 73.384 265.776 73.072 266.2 72.856C266.632 72.632 267.128 72.52 267.688 72.52ZM275.291 79.084C274.579 79.084 273.955 78.944 273.419 78.664C272.891 78.376 272.479 77.984 272.183 77.488C271.895 76.992 271.751 76.428 271.751 75.796C271.751 75.156 271.891 74.592 272.171 74.104C272.459 73.608 272.851 73.22 273.347 72.94C273.851 72.66 274.423 72.52 275.063 72.52C275.687 72.52 276.243 72.656 276.731 72.928C277.219 73.2 277.603 73.584 277.883 74.08C278.163 74.576 278.303 75.16 278.303 75.832C278.303 75.896 278.299 75.968 278.291 76.048C278.291 76.128 278.287 76.204 278.279 76.276H272.939V75.28H277.487L276.899 75.592C276.907 75.224 276.831 74.9 276.671 74.62C276.511 74.34 276.291 74.12 276.011 73.96C275.739 73.8 275.423 73.72 275.063 73.72C274.695 73.72 274.371 73.8 274.091 73.96C273.819 74.12 273.603 74.344 273.443 74.632C273.291 74.912 273.215 75.244 273.215 75.628V75.868C273.215 76.252 273.303 76.592 273.479 76.888C273.655 77.184 273.903 77.412 274.223 77.572C274.543 77.732 274.911 77.812 275.327 77.812C275.687 77.812 276.011 77.756 276.299 77.644C276.587 77.532 276.843 77.356 277.067 77.116L277.871 78.04C277.583 78.376 277.219 78.636 276.779 78.82C276.347 78.996 275.851 79.084 275.291 79.084ZM279.537 76.288V75.04H282.837V76.288H279.537ZM284.83 81.412C284.518 81.412 284.206 81.36 283.894 81.256C283.582 81.152 283.322 81.008 283.114 80.824L283.714 79.72C283.866 79.856 284.038 79.964 284.23 80.044C284.422 80.124 284.618 80.164 284.818 80.164C285.09 80.164 285.31 80.096 285.478 79.96C285.646 79.824 285.802 79.596 285.946 79.276L286.318 78.436L286.438 78.256L288.862 72.592H290.302L287.302 79.516C287.102 79.996 286.878 80.376 286.63 80.656C286.39 80.936 286.118 81.132 285.814 81.244C285.518 81.356 285.19 81.412 284.83 81.412ZM286.15 79.228L283.258 72.592H284.818L287.17 78.124L286.15 79.228ZM294.076 79.084C293.364 79.084 292.74 78.944 292.204 78.664C291.676 78.376 291.264 77.984 290.968 77.488C290.68 76.992 290.536 76.428 290.536 75.796C290.536 75.156 290.676 74.592 290.956 74.104C291.244 73.608 291.636 73.22 292.132 72.94C292.636 72.66 293.208 72.52 293.848 72.52C294.472 72.52 295.028 72.656 295.516 72.928C296.004 73.2 296.388 73.584 296.668 74.08C296.948 74.576 297.088 75.16 297.088 75.832C297.088 75.896 297.084 75.968 297.076 76.048C297.076 76.128 297.072 76.204 297.064 76.276H291.724V75.28H296.272L295.684 75.592C295.692 75.224 295.616 74.9 295.456 74.62C295.296 74.34 295.076 74.12 294.796 73.96C294.524 73.8 294.208 73.72 293.848 73.72C293.48 73.72 293.156 73.8 292.876 73.96C292.604 74.12 292.388 74.344 292.228 74.632C292.076 74.912 292 75.244 292 75.628V75.868C292 76.252 292.088 76.592 292.264 76.888C292.44 77.184 292.688 77.412 293.008 77.572C293.328 77.732 293.696 77.812 294.112 77.812C294.472 77.812 294.796 77.756 295.084 77.644C295.372 77.532 295.628 77.356 295.852 77.116L296.656 78.04C296.368 78.376 296.004 78.636 295.564 78.82C295.132 78.996 294.636 79.084 294.076 79.084ZM302.301 79V77.704L302.217 77.428V75.16C302.217 74.72 302.085 74.38 301.821 74.14C301.557 73.892 301.157 73.768 300.621 73.768C300.261 73.768 299.905 73.824 299.553 73.936C299.209 74.048 298.917 74.204 298.677 74.404L298.089 73.312C298.433 73.048 298.841 72.852 299.313 72.724C299.793 72.588 300.289 72.52 300.801 72.52C301.729 72.52 302.445 72.744 302.949 73.192C303.461 73.632 303.717 74.316 303.717 75.244V79H302.301ZM300.285 79.084C299.805 79.084 299.385 79.004 299.025 78.844C298.665 78.676 298.385 78.448 298.185 78.16C297.993 77.864 297.897 77.532 297.897 77.164C297.897 76.804 297.981 76.48 298.149 76.192C298.325 75.904 298.609 75.676 299.001 75.508C299.393 75.34 299.913 75.256 300.561 75.256H302.421V76.252H300.669C300.157 76.252 299.813 76.336 299.637 76.504C299.461 76.664 299.373 76.864 299.373 77.104C299.373 77.376 299.481 77.592 299.697 77.752C299.913 77.912 300.213 77.992 300.597 77.992C300.965 77.992 301.293 77.908 301.581 77.74C301.877 77.572 302.089 77.324 302.217 76.996L302.469 77.896C302.325 78.272 302.065 78.564 301.689 78.772C301.321 78.98 300.853 79.084 300.285 79.084ZM305.642 79V72.592H307.07V74.356L306.902 73.84C307.094 73.408 307.394 73.08 307.802 72.856C308.218 72.632 308.734 72.52 309.35 72.52V73.948C309.286 73.932 309.226 73.924 309.17 73.924C309.114 73.916 309.058 73.912 309.002 73.912C308.434 73.912 307.982 74.08 307.646 74.416C307.31 74.744 307.142 75.236 307.142 75.892V79H305.642ZM316.122 79L313.338 70.6H314.958L317.442 78.196H316.638L319.218 70.6H320.658L323.166 78.196H322.386L324.93 70.6H326.418L323.634 79H321.978L319.686 72.148H320.118L317.79 79H316.122ZM331.012 79V77.704L330.928 77.428V75.16C330.928 74.72 330.796 74.38 330.532 74.14C330.268 73.892 329.868 73.768 329.332 73.768C328.972 73.768 328.616 73.824 328.264 73.936C327.92 74.048 327.628 74.204 327.388 74.404L326.8 73.312C327.144 73.048 327.552 72.852 328.024 72.724C328.504 72.588 329 72.52 329.512 72.52C330.44 72.52 331.156 72.744 331.66 73.192C332.172 73.632 332.428 74.316 332.428 75.244V79H331.012ZM328.996 79.084C328.516 79.084 328.096 79.004 327.736 78.844C327.376 78.676 327.096 78.448 326.896 78.16C326.704 77.864 326.608 77.532 326.608 77.164C326.608 76.804 326.692 76.48 326.86 76.192C327.036 75.904 327.32 75.676 327.712 75.508C328.104 75.34 328.624 75.256 329.272 75.256H331.132V76.252H329.38C328.868 76.252 328.524 76.336 328.348 76.504C328.172 76.664 328.084 76.864 328.084 77.104C328.084 77.376 328.192 77.592 328.408 77.752C328.624 77.912 328.924 77.992 329.308 77.992C329.676 77.992 330.004 77.908 330.292 77.74C330.588 77.572 330.8 77.324 330.928 76.996L331.18 77.896C331.036 78.272 330.776 78.564 330.4 78.772C330.032 78.98 329.564 79.084 328.996 79.084ZM334.353 79V72.592H335.781V74.356L335.613 73.84C335.805 73.408 336.105 73.08 336.513 72.856C336.929 72.632 337.445 72.52 338.061 72.52V73.948C337.997 73.932 337.937 73.924 337.881 73.924C337.825 73.916 337.769 73.912 337.713 73.912C337.145 73.912 336.693 74.08 336.357 74.416C336.021 74.744 335.853 75.236 335.853 75.892V79H334.353ZM339.334 79V72.592H340.762V74.356L340.594 73.84C340.786 73.408 341.086 73.08 341.494 72.856C341.91 72.632 342.426 72.52 343.042 72.52V73.948C342.978 73.932 342.918 73.924 342.862 73.924C342.806 73.916 342.75 73.912 342.694 73.912C342.126 73.912 341.674 74.08 341.338 74.416C341.002 74.744 340.834 75.236 340.834 75.892V79H339.334ZM347.805 79V77.704L347.721 77.428V75.16C347.721 74.72 347.589 74.38 347.325 74.14C347.061 73.892 346.661 73.768 346.125 73.768C345.765 73.768 345.409 73.824 345.057 73.936C344.713 74.048 344.421 74.204 344.181 74.404L343.593 73.312C343.937 73.048 344.345 72.852 344.817 72.724C345.297 72.588 345.793 72.52 346.305 72.52C347.233 72.52 347.949 72.744 348.453 73.192C348.965 73.632 349.221 74.316 349.221 75.244V79H347.805ZM345.789 79.084C345.309 79.084 344.889 79.004 344.529 78.844C344.169 78.676 343.889 78.448 343.689 78.16C343.497 77.864 343.401 77.532 343.401 77.164C343.401 76.804 343.485 76.48 343.653 76.192C343.829 75.904 344.113 75.676 344.505 75.508C344.897 75.34 345.417 75.256 346.065 75.256H347.925V76.252H346.173C345.661 76.252 345.317 76.336 345.141 76.504C344.965 76.664 344.877 76.864 344.877 77.104C344.877 77.376 344.985 77.592 345.201 77.752C345.417 77.912 345.717 77.992 346.101 77.992C346.469 77.992 346.797 77.908 347.085 77.74C347.381 77.572 347.593 77.324 347.721 76.996L347.973 77.896C347.829 78.272 347.569 78.564 347.193 78.772C346.825 78.98 346.357 79.084 345.789 79.084ZM354.782 72.52C355.294 72.52 355.75 72.62 356.15 72.82C356.558 73.02 356.878 73.328 357.11 73.744C357.342 74.152 357.458 74.68 357.458 75.328V79H355.958V75.52C355.958 74.952 355.822 74.528 355.55 74.248C355.286 73.968 354.914 73.828 354.434 73.828C354.082 73.828 353.77 73.9 353.498 74.044C353.226 74.188 353.014 74.404 352.862 74.692C352.718 74.972 352.646 75.328 352.646 75.76V79H351.146V72.592H352.574V74.32L352.322 73.792C352.546 73.384 352.87 73.072 353.294 72.856C353.726 72.632 354.222 72.52 354.782 72.52ZM361.773 79.084C361.069 79.084 360.525 78.904 360.141 78.544C359.757 78.176 359.565 77.636 359.565 76.924V71.176H361.065V76.888C361.065 77.192 361.141 77.428 361.293 77.596C361.453 77.764 361.673 77.848 361.953 77.848C362.289 77.848 362.569 77.76 362.793 77.584L363.213 78.652C363.037 78.796 362.821 78.904 362.565 78.976C362.309 79.048 362.045 79.084 361.773 79.084ZM358.509 73.84V72.64H362.781V73.84H358.509ZM364.858 81.412C364.546 81.412 364.234 81.36 363.922 81.256C363.61 81.152 363.35 81.008 363.142 80.824L363.742 79.72C363.894 79.856 364.066 79.964 364.258 80.044C364.45 80.124 364.646 80.164 364.846 80.164C365.118 80.164 365.338 80.096 365.506 79.96C365.674 79.824 365.83 79.596 365.974 79.276L366.346 78.436L366.466 78.256L368.89 72.592H370.33L367.33 79.516C367.13 79.996 366.906 80.376 366.658 80.656C366.418 80.936 366.146 81.132 365.842 81.244C365.546 81.356 365.218 81.412 364.858 81.412ZM366.178 79.228L363.286 72.592H364.846L367.198 78.124L366.178 79.228Z" fill="#02191A"/>
<g opacity="0.65">
<ellipse cx="290.513" cy="37.5089" rx="3.47037" ry="3.47326" fill="#00959A"/>
<ellipse cx="284.596" cy="22.4567" rx="4.62716" ry="4.63102" fill="#00959A"/>
<ellipse cx="289.97" cy="7.40734" rx="3.47037" ry="3.47326" fill="#00959A"/>
<ellipse cx="3.47037" cy="3.47326" rx="3.47037" ry="3.47326" transform="matrix(-1 0 0 1 336.65 34.0356)" fill="#00959A"/>
<ellipse cx="4.62716" cy="4.63102" rx="4.62716" ry="4.63102" transform="matrix(-1 0 0 1 343.182 17.8257)" fill="#00959A"/>
<ellipse cx="3.47037" cy="3.47326" rx="3.47037" ry="3.47326" transform="matrix(-1 0 0 1 337.193 3.93408)" fill="#00959A"/>
</g>
<path d="M305.205 35.6072V49.5165C305.205 49.9477 305.459 50.3446 305.862 50.5376C306.265 50.7306 306.738 50.6736 307.083 50.4016L312.131 46.4308L317.178 50.4016C317.374 50.5718 317.627 50.6512 317.881 50.6512C318.054 50.6512 318.227 50.617 318.376 50.5376C318.78 50.345 319.033 49.9477 319.033 49.5165V35.6072C325.129 32.9751 329.405 26.9844 329.405 20.0184C329.405 10.6355 321.649 3 312.119 3C302.589 3 294.834 10.6355 294.834 20.0184C294.834 26.9845 299.109 32.9747 305.205 35.6072ZM316.729 47.1573L312.834 44.094C312.408 43.765 311.82 43.765 311.394 44.094L307.51 47.1573V36.4017C308.985 36.8104 310.518 37.0372 312.119 37.0372C313.721 37.0372 315.254 36.8104 316.729 36.4017V47.1573ZM312.119 5.26976C320.382 5.26976 327.1 11.8842 327.1 20.0193C327.1 28.1539 320.382 34.7689 312.119 34.7689C303.857 34.7689 297.139 28.1545 297.139 20.0193C297.139 11.8847 303.857 5.26976 312.119 5.26976Z" fill="#49AEB3" stroke="#49AEB2" stroke-width="0.545817"/>
<path opacity="0.65" d="M303.581 29.9062C303.517 30.3189 303.679 30.7206 304.013 30.9704C304.348 31.2093 304.791 31.242 305.147 31.0573L311.883 27.4849L318.619 31.0464C318.781 31.1333 318.954 31.166 319.127 31.166C319.354 31.166 319.57 31.1009 319.764 30.9599C320.099 30.721 320.26 30.3084 320.196 29.8957L318.911 22.3602L324.363 17.0181C324.654 16.725 324.762 16.3015 324.633 15.8997C324.504 15.5089 324.169 15.2155 323.759 15.1613L316.234 14.0645L312.855 7.21248C312.488 6.47409 311.278 6.47409 310.922 7.21248L307.554 14.075L300.03 15.1719C299.62 15.226 299.285 15.5194 299.156 15.9102C299.026 16.3011 299.134 16.7355 299.426 17.0286L304.877 22.3707L303.581 29.9062ZM302.502 16.9963L308.429 16.1278C308.785 16.0736 309.087 15.8562 309.238 15.5304L311.883 10.1447L314.528 15.5413C314.69 15.8671 314.992 16.0841 315.337 16.1386L321.264 17.0072L316.979 21.2092C316.719 21.4589 316.612 21.8174 316.665 22.1755L317.68 28.115L312.379 25.3133C312.217 25.2264 312.045 25.1937 311.872 25.1937C311.699 25.1937 311.526 25.237 311.364 25.3133L306.064 28.115L307.078 22.1755C307.143 21.828 307.024 21.459 306.765 21.2092L302.502 16.9963Z" fill="#00959A"/>
<path d="M3.47983 74.464H7.66783V75.784H3.47983V74.464ZM3.61183 79H2.05183V70.6H8.18383V71.908H3.61183V79ZM9.43127 79V72.592H10.8593V74.356L10.6913 73.84C10.8833 73.408 11.1833 73.08 11.5913 72.856C12.0073 72.632 12.5233 72.52 13.1393 72.52V73.948C13.0753 73.932 13.0153 73.924 12.9593 73.924C12.9033 73.916 12.8473 73.912 12.7913 73.912C12.2233 73.912 11.7713 74.08 11.4353 74.416C11.0993 74.744 10.9313 75.236 10.9313 75.892V79H9.43127ZM17.3651 79.084C16.6531 79.084 16.0291 78.944 15.4931 78.664C14.9651 78.376 14.5531 77.984 14.2571 77.488C13.9691 76.992 13.8251 76.428 13.8251 75.796C13.8251 75.156 13.9651 74.592 14.2451 74.104C14.5331 73.608 14.9251 73.22 15.4211 72.94C15.9251 72.66 16.4971 72.52 17.1371 72.52C17.7611 72.52 18.3171 72.656 18.8051 72.928C19.2931 73.2 19.6771 73.584 19.9571 74.08C20.2371 74.576 20.3771 75.16 20.3771 75.832C20.3771 75.896 20.3731 75.968 20.3651 76.048C20.3651 76.128 20.3611 76.204 20.3531 76.276H15.0131V75.28H19.5611L18.9731 75.592C18.9811 75.224 18.9051 74.9 18.7451 74.62C18.5851 74.34 18.3651 74.12 18.0851 73.96C17.8131 73.8 17.4971 73.72 17.1371 73.72C16.7691 73.72 16.4451 73.8 16.1651 73.96C15.8931 74.12 15.6771 74.344 15.5171 74.632C15.3651 74.912 15.2891 75.244 15.2891 75.628V75.868C15.2891 76.252 15.3771 76.592 15.5531 76.888C15.7291 77.184 15.9771 77.412 16.2971 77.572C16.6171 77.732 16.9851 77.812 17.4011 77.812C17.7611 77.812 18.0851 77.756 18.3731 77.644C18.6611 77.532 18.9171 77.356 19.1411 77.116L19.9451 78.04C19.6571 78.376 19.2931 78.636 18.8531 78.82C18.4211 78.996 17.9251 79.084 17.3651 79.084ZM24.83 79.084C24.118 79.084 23.494 78.944 22.958 78.664C22.43 78.376 22.018 77.984 21.722 77.488C21.434 76.992 21.29 76.428 21.29 75.796C21.29 75.156 21.43 74.592 21.71 74.104C21.998 73.608 22.39 73.22 22.886 72.94C23.39 72.66 23.962 72.52 24.602 72.52C25.226 72.52 25.782 72.656 26.27 72.928C26.758 73.2 27.142 73.584 27.422 74.08C27.702 74.576 27.842 75.16 27.842 75.832C27.842 75.896 27.838 75.968 27.83 76.048C27.83 76.128 27.826 76.204 27.818 76.276H22.478V75.28H27.026L26.438 75.592C26.446 75.224 26.37 74.9 26.21 74.62C26.05 74.34 25.83 74.12 25.55 73.96C25.278 73.8 24.962 73.72 24.602 73.72C24.234 73.72 23.91 73.8 23.63 73.96C23.358 74.12 23.142 74.344 22.982 74.632C22.83 74.912 22.754 75.244 22.754 75.628V75.868C22.754 76.252 22.842 76.592 23.018 76.888C23.194 77.184 23.442 77.412 23.762 77.572C24.082 77.732 24.45 77.812 24.866 77.812C25.226 77.812 25.55 77.756 25.838 77.644C26.126 77.532 26.382 77.356 26.606 77.116L27.41 78.04C27.122 78.376 26.758 78.636 26.318 78.82C25.886 78.996 25.39 79.084 24.83 79.084ZM35.3472 79.12C34.6912 79.12 34.0632 79.028 33.4632 78.844C32.8632 78.652 32.3872 78.408 32.0352 78.112L32.5752 76.9C32.9112 77.164 33.3272 77.384 33.8232 77.56C34.3192 77.736 34.8272 77.824 35.3472 77.824C35.7872 77.824 36.1432 77.776 36.4152 77.68C36.6872 77.584 36.8872 77.456 37.0152 77.296C37.1432 77.128 37.2072 76.94 37.2072 76.732C37.2072 76.476 37.1152 76.272 36.9312 76.12C36.7472 75.96 36.5072 75.836 36.2112 75.748C35.9232 75.652 35.5992 75.564 35.2392 75.484C34.8872 75.404 34.5312 75.312 34.1712 75.208C33.8192 75.096 33.4952 74.956 33.1992 74.788C32.9112 74.612 32.6752 74.38 32.4912 74.092C32.3072 73.804 32.2152 73.436 32.2152 72.988C32.2152 72.532 32.3352 72.116 32.5752 71.74C32.8232 71.356 33.1952 71.052 33.6912 70.828C34.1952 70.596 34.8312 70.48 35.5992 70.48C36.1032 70.48 36.6032 70.544 37.0992 70.672C37.5952 70.8 38.0272 70.984 38.3952 71.224L37.9032 72.436C37.5272 72.212 37.1392 72.048 36.7392 71.944C36.3392 71.832 35.9552 71.776 35.5872 71.776C35.1552 71.776 34.8032 71.828 34.5312 71.932C34.2672 72.036 34.0712 72.172 33.9432 72.34C33.8232 72.508 33.7632 72.7 33.7632 72.916C33.7632 73.172 33.8512 73.38 34.0272 73.54C34.2112 73.692 34.4472 73.812 34.7352 73.9C35.0312 73.988 35.3592 74.076 35.7192 74.164C36.0792 74.244 36.4352 74.336 36.7872 74.44C37.1472 74.544 37.4712 74.68 37.7592 74.848C38.0552 75.016 38.2912 75.244 38.4672 75.532C38.6512 75.82 38.7432 76.184 38.7432 76.624C38.7432 77.072 38.6192 77.488 38.3712 77.872C38.1312 78.248 37.7592 78.552 37.2552 78.784C36.7512 79.008 36.1152 79.12 35.3472 79.12ZM43.7821 72.52C44.2941 72.52 44.7501 72.62 45.1501 72.82C45.5581 73.02 45.8781 73.328 46.1101 73.744C46.3421 74.152 46.4581 74.68 46.4581 75.328V79H44.9581V75.52C44.9581 74.952 44.8221 74.528 44.5501 74.248C44.2861 73.968 43.9141 73.828 43.4341 73.828C43.0821 73.828 42.7701 73.9 42.4981 74.044C42.2261 74.188 42.0141 74.404 41.8621 74.692C41.7181 74.972 41.6461 75.328 41.6461 75.76V79H40.1461V70.096H41.6461V74.32L41.3221 73.792C41.5461 73.384 41.8701 73.072 42.2941 72.856C42.7261 72.632 43.2221 72.52 43.7821 72.52ZM48.361 79V72.592H49.861V79H48.361ZM49.117 71.536C48.837 71.536 48.605 71.448 48.421 71.272C48.245 71.096 48.157 70.884 48.157 70.636C48.157 70.38 48.245 70.168 48.421 70C48.605 69.824 48.837 69.736 49.117 69.736C49.397 69.736 49.625 69.82 49.801 69.988C49.985 70.148 50.077 70.352 50.077 70.6C50.077 70.864 49.989 71.088 49.813 71.272C49.637 71.448 49.405 71.536 49.117 71.536ZM55.3817 79.084C54.8617 79.084 54.3857 78.964 53.9537 78.724C53.5297 78.484 53.1897 78.124 52.9337 77.644C52.6857 77.156 52.5617 76.54 52.5617 75.796C52.5617 75.044 52.6817 74.428 52.9217 73.948C53.1697 73.468 53.5057 73.112 53.9297 72.88C54.3537 72.64 54.8377 72.52 55.3817 72.52C56.0137 72.52 56.5697 72.656 57.0497 72.928C57.5377 73.2 57.9217 73.58 58.2017 74.068C58.4897 74.556 58.6337 75.132 58.6337 75.796C58.6337 76.46 58.4897 77.04 58.2017 77.536C57.9217 78.024 57.5377 78.404 57.0497 78.676C56.5697 78.948 56.0137 79.084 55.3817 79.084ZM51.8297 81.328V72.592H53.2577V74.104L53.2097 75.808L53.3297 77.512V81.328H51.8297ZM55.2137 77.8C55.5737 77.8 55.8937 77.72 56.1737 77.56C56.4617 77.4 56.6897 77.168 56.8577 76.864C57.0257 76.56 57.1097 76.204 57.1097 75.796C57.1097 75.38 57.0257 75.024 56.8577 74.728C56.6897 74.424 56.4617 74.192 56.1737 74.032C55.8937 73.872 55.5737 73.792 55.2137 73.792C54.8537 73.792 54.5297 73.872 54.2417 74.032C53.9537 74.192 53.7257 74.424 53.5577 74.728C53.3897 75.024 53.3057 75.38 53.3057 75.796C53.3057 76.204 53.3897 76.56 53.5577 76.864C53.7257 77.168 53.9537 77.4 54.2417 77.56C54.5297 77.72 54.8537 77.8 55.2137 77.8ZM63.6083 79.084C63.0883 79.084 62.6123 78.964 62.1803 78.724C61.7563 78.484 61.4163 78.124 61.1603 77.644C60.9123 77.156 60.7883 76.54 60.7883 75.796C60.7883 75.044 60.9083 74.428 61.1483 73.948C61.3963 73.468 61.7323 73.112 62.1563 72.88C62.5803 72.64 63.0643 72.52 63.6083 72.52C64.2403 72.52 64.7963 72.656 65.2763 72.928C65.7643 73.2 66.1483 73.58 66.4283 74.068C66.7163 74.556 66.8603 75.132 66.8603 75.796C66.8603 76.46 66.7163 77.04 66.4283 77.536C66.1483 78.024 65.7643 78.404 65.2763 78.676C64.7963 78.948 64.2403 79.084 63.6083 79.084ZM60.0563 81.328V72.592H61.4843V74.104L61.4363 75.808L61.5563 77.512V81.328H60.0563ZM63.4403 77.8C63.8003 77.8 64.1203 77.72 64.4003 77.56C64.6883 77.4 64.9163 77.168 65.0843 76.864C65.2523 76.56 65.3363 76.204 65.3363 75.796C65.3363 75.38 65.2523 75.024 65.0843 74.728C64.9163 74.424 64.6883 74.192 64.4003 74.032C64.1203 73.872 63.8003 73.792 63.4403 73.792C63.0803 73.792 62.7563 73.872 62.4683 74.032C62.1803 74.192 61.9523 74.424 61.7843 74.728C61.6163 75.024 61.5323 75.38 61.5323 75.796C61.5323 76.204 61.6163 76.56 61.7843 76.864C61.9523 77.168 62.1803 77.4 62.4683 77.56C62.7563 77.72 63.0803 77.8 63.4403 77.8ZM68.2828 79V72.592H69.7828V79H68.2828ZM69.0388 71.536C68.7588 71.536 68.5268 71.448 68.3428 71.272C68.1668 71.096 68.0788 70.884 68.0788 70.636C68.0788 70.38 68.1668 70.168 68.3428 70C68.5268 69.824 68.7588 69.736 69.0388 69.736C69.3188 69.736 69.5468 69.82 69.7228 69.988C69.9068 70.148 69.9988 70.352 69.9988 70.6C69.9988 70.864 69.9108 71.088 69.7348 71.272C69.5588 71.448 69.3268 71.536 69.0388 71.536ZM75.3876 72.52C75.8996 72.52 76.3556 72.62 76.7556 72.82C77.1636 73.02 77.4836 73.328 77.7156 73.744C77.9476 74.152 78.0636 74.68 78.0636 75.328V79H76.5636V75.52C76.5636 74.952 76.4276 74.528 76.1556 74.248C75.8916 73.968 75.5196 73.828 75.0396 73.828C74.6876 73.828 74.3756 73.9 74.1036 74.044C73.8316 74.188 73.6196 74.404 73.4676 74.692C73.3236 74.972 73.2516 75.328 73.2516 75.76V79H71.7516V72.592H73.1796V74.32L72.9276 73.792C73.1516 73.384 73.4756 73.072 73.8996 72.856C74.3316 72.632 74.8276 72.52 75.3876 72.52ZM82.8821 81.412C82.2901 81.412 81.7101 81.332 81.1421 81.172C80.5821 81.02 80.1221 80.796 79.7621 80.5L80.4341 79.372C80.7141 79.604 81.0661 79.788 81.4901 79.924C81.9221 80.068 82.3581 80.14 82.7981 80.14C83.5021 80.14 84.0181 79.976 84.3461 79.648C84.6741 79.328 84.8381 78.844 84.8381 78.196V77.056L84.9581 75.604L84.9101 74.152V72.592H86.3381V78.028C86.3381 79.188 86.0421 80.04 85.4501 80.584C84.8581 81.136 84.0021 81.412 82.8821 81.412ZM82.6901 78.712C82.0821 78.712 81.5301 78.584 81.0341 78.328C80.5461 78.064 80.1581 77.7 79.8701 77.236C79.5901 76.772 79.4501 76.228 79.4501 75.604C79.4501 74.988 79.5901 74.448 79.8701 73.984C80.1581 73.52 80.5461 73.16 81.0341 72.904C81.5301 72.648 82.0821 72.52 82.6901 72.52C83.2341 72.52 83.7221 72.628 84.1541 72.844C84.5861 73.06 84.9301 73.396 85.1861 73.852C85.4501 74.308 85.5821 74.892 85.5821 75.604C85.5821 76.316 85.4501 76.904 85.1861 77.368C84.9301 77.824 84.5861 78.164 84.1541 78.388C83.7221 78.604 83.2341 78.712 82.6901 78.712ZM82.9181 77.44C83.2941 77.44 83.6301 77.364 83.9261 77.212C84.2221 77.052 84.4501 76.836 84.6101 76.564C84.7781 76.284 84.8621 75.964 84.8621 75.604C84.8621 75.244 84.7781 74.928 84.6101 74.656C84.4501 74.376 84.2221 74.164 83.9261 74.02C83.6301 73.868 83.2941 73.792 82.9181 73.792C82.5421 73.792 82.2021 73.868 81.8981 74.02C81.6021 74.164 81.3701 74.376 81.2021 74.656C81.0421 74.928 80.9621 75.244 80.9621 75.604C80.9621 75.964 81.0421 76.284 81.2021 76.564C81.3701 76.836 81.6021 77.052 81.8981 77.212C82.2021 77.364 82.5421 77.44 82.9181 77.44Z" fill="#02191A"/>
<path opacity="0.65" fill-rule="evenodd" clip-rule="evenodd" d="M12.7902 41.3824H14.0236C14.9764 36.3614 19.2119 33.763 23.9022 33.763C28.5959 33.763 32.7601 36.9378 33.3953 41.3824H54.9632C55.0773 41.114 54.9632 39.161 54.9632 38.8536L54.9621 14.5629C54.9621 13.9552 54.714 13.3994 54.3157 13.0049C53.9042 12.6039 53.3463 12.3549 52.7392 12.3549L15.0163 12.3555C14.4027 12.3555 13.8448 12.6012 13.4464 12.9989C13.0382 13.4027 12.7902 13.9552 12.7902 14.5629V38.8536C12.7902 39.1605 12.6754 41.114 12.7902 41.3824ZM15.6683 44.5203H11.05C9.71837 44.5203 8.625 43.4406 8.625 42.1185C8.625 41.3522 8.99711 40.6638 9.5681 40.2243C9.45718 39.7849 9.39489 39.3287 9.39489 38.8568L9.39543 14.5633C9.39543 13.0377 10.0287 11.6474 11.0439 10.6387C12.069 9.62343 13.4755 9 15.013 9H52.7332C54.2767 9 55.6838 9.62398 56.7023 10.6327C57.7175 11.6447 58.3507 13.0377 58.3507 14.5639L58.4486 18.8278H65.6682C74.4643 18.8278 76.1745 26.4439 76.3378 39.7173H76.7034C78.035 39.7173 79.125 40.7969 79.125 42.1125C79.125 43.4346 78.0349 44.2397 76.7034 44.2397H74.0439C74.0439 39.8432 71.0687 36.3576 66.4211 36.3576C61.7733 36.3576 58.8007 39.8432 58.8007 44.2397H31.1723C30.8547 39.7951 28.6318 36.6203 23.9022 36.3614C19.1895 36.3614 16.2466 40.1886 16.2466 44.5203H15.6683ZM72.1897 29.4108C71.6739 26.66 70.8155 24.2933 69.3959 23.1975C68.3451 22.3895 66.9677 22.1887 65.6715 22.1887H61.7451V29.4102L72.1897 29.4108ZM66.4191 38.7597C63.501 38.7615 61.2306 41.3246 61.3412 44.2397C61.4476 47.0427 63.6152 49.3186 66.4211 49.3193C69.2276 49.32 71.397 47.0434 71.5034 44.2397C71.614 41.3229 69.3388 38.7578 66.4191 38.7597ZM23.9038 38.7597C26.5459 38.864 28.4897 40.9652 28.6318 43.6048C28.7823 46.4028 26.703 48.8926 23.9022 49.0018C21.0001 49.115 18.6306 46.504 18.7872 43.6048C18.9355 40.8573 21.1537 38.651 23.9038 38.7597Z" fill="#00959A"/>
<path d="M143.556 74.092H147.732V75.376H143.556V74.092ZM143.676 77.692H148.416V79H142.116V70.6H148.248V71.908H143.676V77.692ZM153.901 79V77.704L153.817 77.428V75.16C153.817 74.72 153.685 74.38 153.421 74.14C153.157 73.892 152.757 73.768 152.221 73.768C151.861 73.768 151.505 73.824 151.153 73.936C150.809 74.048 150.517 74.204 150.277 74.404L149.689 73.312C150.033 73.048 150.441 72.852 150.913 72.724C151.393 72.588 151.889 72.52 152.401 72.52C153.329 72.52 154.045 72.744 154.549 73.192C155.061 73.632 155.317 74.316 155.317 75.244V79H153.901ZM151.885 79.084C151.405 79.084 150.985 79.004 150.625 78.844C150.265 78.676 149.985 78.448 149.785 78.16C149.593 77.864 149.497 77.532 149.497 77.164C149.497 76.804 149.581 76.48 149.749 76.192C149.925 75.904 150.209 75.676 150.601 75.508C150.993 75.34 151.513 75.256 152.161 75.256H154.021V76.252H152.269C151.757 76.252 151.413 76.336 151.237 76.504C151.061 76.664 150.973 76.864 150.973 77.104C150.973 77.376 151.081 77.592 151.297 77.752C151.513 77.912 151.813 77.992 152.197 77.992C152.565 77.992 152.893 77.908 153.181 77.74C153.477 77.572 153.689 77.324 153.817 76.996L154.069 77.896C153.925 78.272 153.665 78.564 153.289 78.772C152.921 78.98 152.453 79.084 151.885 79.084ZM159.222 79.084C158.686 79.084 158.17 79.016 157.674 78.88C157.186 78.736 156.798 78.564 156.51 78.364L157.086 77.224C157.374 77.408 157.718 77.56 158.118 77.68C158.518 77.8 158.918 77.86 159.318 77.86C159.79 77.86 160.13 77.796 160.338 77.668C160.554 77.54 160.662 77.368 160.662 77.152C160.662 76.976 160.59 76.844 160.446 76.756C160.302 76.66 160.114 76.588 159.882 76.54C159.65 76.492 159.39 76.448 159.102 76.408C158.822 76.368 158.538 76.316 158.25 76.252C157.97 76.18 157.714 76.08 157.482 75.952C157.25 75.816 157.062 75.636 156.918 75.412C156.774 75.188 156.702 74.892 156.702 74.524C156.702 74.116 156.818 73.764 157.05 73.468C157.282 73.164 157.606 72.932 158.022 72.772C158.446 72.604 158.946 72.52 159.522 72.52C159.954 72.52 160.39 72.568 160.83 72.664C161.27 72.76 161.634 72.896 161.922 73.072L161.346 74.212C161.042 74.028 160.734 73.904 160.422 73.84C160.118 73.768 159.814 73.732 159.51 73.732C159.054 73.732 158.714 73.8 158.49 73.936C158.274 74.072 158.166 74.244 158.166 74.452C158.166 74.644 158.238 74.788 158.382 74.884C158.526 74.98 158.714 75.056 158.946 75.112C159.178 75.168 159.434 75.216 159.714 75.256C160.002 75.288 160.286 75.34 160.566 75.412C160.846 75.484 161.102 75.584 161.334 75.712C161.574 75.832 161.766 76.004 161.91 76.228C162.054 76.452 162.126 76.744 162.126 77.104C162.126 77.504 162.006 77.852 161.766 78.148C161.534 78.444 161.202 78.676 160.77 78.844C160.338 79.004 159.822 79.084 159.222 79.084ZM163.828 81.412C163.516 81.412 163.204 81.36 162.892 81.256C162.58 81.152 162.32 81.008 162.112 80.824L162.712 79.72C162.864 79.856 163.036 79.964 163.228 80.044C163.42 80.124 163.616 80.164 163.816 80.164C164.088 80.164 164.308 80.096 164.476 79.96C164.644 79.824 164.8 79.596 164.944 79.276L165.316 78.436L165.436 78.256L167.86 72.592H169.3L166.3 79.516C166.1 79.996 165.876 80.376 165.628 80.656C165.388 80.936 165.116 81.132 164.812 81.244C164.516 81.356 164.188 81.412 163.828 81.412ZM165.148 79.228L162.256 72.592H163.816L166.168 78.124L165.148 79.228ZM173.698 79V70.6H177.154C177.898 70.6 178.534 70.72 179.062 70.96C179.598 71.2 180.01 71.544 180.298 71.992C180.586 72.44 180.73 72.972 180.73 73.588C180.73 74.204 180.586 74.736 180.298 75.184C180.01 75.624 179.598 75.964 179.062 76.204C178.534 76.436 177.898 76.552 177.154 76.552H174.562L175.258 75.844V79H173.698ZM179.194 79L177.07 75.952H178.738L180.874 79H179.194ZM175.258 76.012L174.562 75.268H177.082C177.77 75.268 178.286 75.12 178.63 74.824C178.982 74.528 179.158 74.116 179.158 73.588C179.158 73.052 178.982 72.64 178.63 72.352C178.286 72.064 177.77 71.92 177.082 71.92H174.562L175.258 71.152V76.012ZM185.344 79.084C184.632 79.084 184.008 78.944 183.472 78.664C182.944 78.376 182.532 77.984 182.236 77.488C181.948 76.992 181.804 76.428 181.804 75.796C181.804 75.156 181.944 74.592 182.224 74.104C182.512 73.608 182.904 73.22 183.4 72.94C183.904 72.66 184.476 72.52 185.116 72.52C185.74 72.52 186.296 72.656 186.784 72.928C187.272 73.2 187.656 73.584 187.936 74.08C188.216 74.576 188.356 75.16 188.356 75.832C188.356 75.896 188.352 75.968 188.344 76.048C188.344 76.128 188.34 76.204 188.332 76.276H182.992V75.28H187.54L186.952 75.592C186.96 75.224 186.884 74.9 186.724 74.62C186.564 74.34 186.344 74.12 186.064 73.96C185.792 73.8 185.476 73.72 185.116 73.72C184.748 73.72 184.424 73.8 184.144 73.96C183.872 74.12 183.656 74.344 183.496 74.632C183.344 74.912 183.268 75.244 183.268 75.628V75.868C183.268 76.252 183.356 76.592 183.532 76.888C183.708 77.184 183.956 77.412 184.276 77.572C184.596 77.732 184.964 77.812 185.38 77.812C185.74 77.812 186.064 77.756 186.352 77.644C186.64 77.532 186.896 77.356 187.12 77.116L187.924 78.04C187.636 78.376 187.272 78.636 186.832 78.82C186.4 78.996 185.904 79.084 185.344 79.084ZM192.209 79.084C191.505 79.084 190.961 78.904 190.576 78.544C190.193 78.176 190.001 77.636 190.001 76.924V71.176H191.501V76.888C191.501 77.192 191.577 77.428 191.729 77.596C191.889 77.764 192.109 77.848 192.389 77.848C192.725 77.848 193.005 77.76 193.229 77.584L193.649 78.652C193.473 78.796 193.257 78.904 193.001 78.976C192.745 79.048 192.481 79.084 192.209 79.084ZM188.945 73.84V72.64H193.217V73.84H188.945ZM197.594 79.084C197.05 79.084 196.57 78.984 196.154 78.784C195.738 78.576 195.414 78.264 195.182 77.848C194.95 77.424 194.834 76.892 194.834 76.252V72.592H196.334V76.048C196.334 76.624 196.462 77.056 196.718 77.344C196.982 77.624 197.354 77.764 197.834 77.764C198.186 77.764 198.49 77.692 198.746 77.548C199.01 77.404 199.214 77.188 199.358 76.9C199.51 76.612 199.586 76.256 199.586 75.832V72.592H201.086V79H199.658V77.272L199.91 77.8C199.694 78.216 199.378 78.536 198.962 78.76C198.546 78.976 198.09 79.084 197.594 79.084ZM203.05 79V72.592H204.478V74.356L204.31 73.84C204.502 73.408 204.802 73.08 205.21 72.856C205.626 72.632 206.142 72.52 206.758 72.52V73.948C206.694 73.932 206.634 73.924 206.578 73.924C206.522 73.916 206.466 73.912 206.41 73.912C205.842 73.912 205.39 74.08 205.054 74.416C204.718 74.744 204.55 75.236 204.55 75.892V79H203.05ZM211.667 72.52C212.179 72.52 212.635 72.62 213.035 72.82C213.443 73.02 213.763 73.328 213.995 73.744C214.227 74.152 214.343 74.68 214.343 75.328V79H212.843V75.52C212.843 74.952 212.707 74.528 212.435 74.248C212.171 73.968 211.799 73.828 211.319 73.828C210.967 73.828 210.655 73.9 210.383 74.044C210.111 74.188 209.899 74.404 209.747 74.692C209.603 74.972 209.531 75.328 209.531 75.76V79H208.031V72.592H209.459V74.32L209.207 73.792C209.431 73.384 209.755 73.072 210.179 72.856C210.611 72.632 211.107 72.52 211.667 72.52Z" fill="#02191A"/>
<path opacity="0.65" d="M159.603 25.7277H197.225C197.772 25.7277 198.215 25.285 198.215 24.7384V7.58661C198.215 7.03953 197.772 6.59724 197.225 6.59724L186.828 6.59683C186.062 2.83728 182.728 0 178.744 0C174.759 0 171.426 2.83728 170.66 6.59683H159.603C159.057 6.59683 158.613 7.03954 158.613 7.5862V24.738C158.613 25.285 159.056 25.7277 159.603 25.7277ZM165.787 8.57598H170.511C170.605 10.944 171.697 13.057 173.385 14.5031C173.219 15.0373 173.134 15.5935 173.134 16.1621C173.134 19.254 175.651 21.7695 178.744 21.7695C181.838 21.7695 184.355 19.254 184.355 16.1621C184.355 15.5926 184.27 15.0373 184.103 14.5031C185.791 13.0569 186.883 10.944 186.978 8.57598H191.041C191.467 11.2384 193.571 13.3423 196.235 13.7676V18.5567C193.572 18.982 191.467 21.0855 191.041 23.7484H165.787C165.362 21.0859 163.257 18.9821 160.593 18.5567V13.7676C163.257 13.3419 165.361 11.2385 165.787 8.57598ZM182.335 15.6582C182.359 15.8242 182.374 15.992 182.374 16.1622C182.374 18.1629 180.746 19.7905 178.744 19.7905C176.743 19.7905 175.114 18.1629 175.114 16.1622C175.114 15.9928 175.14 15.8284 175.162 15.6627C176.247 16.1887 177.46 16.4918 178.744 16.4918C180.032 16.4918 181.249 16.1866 182.335 15.6582ZM160.594 20.5702C162.165 20.943 163.401 22.1792 163.774 23.7487L163.019 21.1058L160.594 20.5702ZM193.056 23.7484C193.429 22.1783 194.665 20.9426 196.236 20.5699H193.55L193.056 23.7484ZM196.236 11.7544C194.665 11.3817 193.428 10.1455 193.056 8.57598L193.333 10.8827L196.236 11.7544ZM178.745 1.97958C182.202 1.97958 185.015 4.79121 185.015 8.24626C185.015 11.7018 182.202 14.5134 178.745 14.5134C175.288 14.5134 172.475 11.7017 172.475 8.24626C172.475 4.7911 175.288 1.97958 178.745 1.97958ZM163.774 8.5764C163.401 10.1464 162.164 11.3822 160.594 11.7549L163.349 11.2125L163.774 8.5764Z" fill="#00959A"/>
<path opacity="0.65" d="M174.72 10.4194C174.351 10.5591 174.079 10.8775 174.041 11.2711C173.987 11.8325 174.433 12.3287 175.038 12.3791L176.822 12.5274C176.855 12.5299 177.486 12.5316 177.519 12.5316C178.024 12.5316 178.061 12.3361 178.178 11.8721L178.422 10.0357C178.56 9.48665 178.194 8.93712 177.603 8.80848C177.167 8.71404 176.733 8.87471 176.479 9.18408C176.232 8.79694 176.093 8.35296 176.093 7.88933C176.093 6.48387 177.324 5.3404 178.837 5.3404C180.351 5.3404 181.582 6.48387 181.582 7.88933C181.582 8.79266 181.057 9.6374 180.213 10.0938C179.688 10.3775 179.511 11.0027 179.816 11.4898C180.02 11.8159 180.388 11.9975 180.766 11.9975C180.955 11.9975 181.145 11.9526 181.319 11.8586C182.837 11.0377 183.78 9.51654 183.78 7.8889C183.78 5.35747 181.563 3.29785 178.837 3.29785C176.111 3.29785 173.895 5.3566 173.895 7.8889C173.894 8.80591 174.192 9.67972 174.72 10.4194Z" fill="#00959A"/>
<g opacity="0.65">
<path d="M210.777 32.5914C209.263 30.0649 206.025 29.1733 203.427 30.5851L203.115 30.7634C201.734 29.0989 199.343 28.4599 197.532 29.3813C197.532 29.3813 197.517 29.3813 197.517 29.3961L196.73 29.8122C194.755 28.1478 191.963 27.91 189.721 29.1881L185.4 31.5361H179.653C178.406 31.5361 177.188 31.2538 176.075 30.7188L175.288 30.3323C170.685 28.0882 165.205 28.6233 161.122 31.7145C161.107 31.7293 161.078 31.7442 161.063 31.7591L159.147 33.4681C158.435 34.1072 157.603 34.5679 156.682 34.8503L155.598 31.3133C155.48 30.9417 155.138 30.6891 154.752 30.6891H145.516C145.026 30.6891 144.625 31.0903 144.625 31.5808V31.6848L147.714 56.9496C147.773 57.3955 148.144 57.7373 148.605 57.7373H162.474C162.964 57.7373 163.365 57.3361 163.365 56.8456C163.365 56.7564 163.35 56.6673 163.321 56.593L161.509 50.6336L167.166 47.052C167.924 46.6359 168.8 46.517 169.631 46.7399C169.646 46.7399 169.661 46.7548 169.691 46.7548L181.228 48.88C184.377 49.4447 187.614 48.984 190.479 47.5722C190.524 47.5573 190.554 47.5276 190.583 47.5128L210.541 33.796C210.912 33.5137 211.031 32.9935 210.778 32.5922L210.777 32.5914ZM198.348 30.9417C199.373 30.4216 200.665 30.8377 201.496 31.6254L193.953 35.6974L193.537 35.9204C193.3 35.2664 192.958 34.6423 192.528 34.0924L198.348 30.9417ZM190.582 30.7337L190.597 30.7188C191.948 29.9312 193.626 29.946 194.978 30.7337L191.191 32.7696C190.478 32.2495 189.677 31.878 188.815 31.6848L190.582 30.7337ZM149.39 55.9537L146.525 32.443H154.098L161.255 55.9388H149.39V55.9537ZM189.617 45.9965C187.108 47.2152 184.286 47.6165 181.539 47.126L170.031 45.0008C168.754 44.6887 167.418 44.867 166.274 45.5061C166.259 45.5209 166.244 45.5209 166.23 45.5358L160.973 48.8648L157.216 36.5595C158.374 36.2028 159.444 35.6084 160.349 34.8059L162.235 33.1266C165.784 30.4515 170.536 30.0057 174.53 31.9377L175.317 32.3241C176.683 32.978 178.168 33.3198 179.683 33.3198H187.36C189.661 33.3198 191.636 34.9545 192.082 37.1987L186.558 36.946C184.538 36.8569 182.504 36.946 180.499 37.2284C180.009 37.2878 179.668 37.7337 179.727 38.2241C179.787 38.7145 180.232 39.0563 180.722 38.9969H180.737C182.638 38.7294 184.553 38.6402 186.469 38.7294L193.017 39.0266H193.062C193.552 39.0266 193.953 38.6254 193.953 38.1349C193.953 38.0012 193.953 37.8674 193.938 37.7337L194.814 37.273L204.303 32.1458C205.773 31.3433 207.599 31.6257 208.772 32.8443L189.617 45.9965Z" fill="#00959A" stroke="#00959A"/>
<path d="M152.062 52.4171C152.062 53.933 153.295 55.1516 154.795 55.1665C156.309 55.1665 157.542 53.933 157.542 52.4319C157.542 50.9161 156.309 49.6826 154.81 49.6826C153.295 49.6826 152.062 50.9013 152.062 52.4171ZM153.844 52.4171C153.844 51.8821 154.275 51.466 154.795 51.466C155.329 51.466 155.745 51.897 155.745 52.4171C155.745 52.9521 155.314 53.3683 154.795 53.3683C154.275 53.3831 153.844 52.9521 153.844 52.4171Z" fill="#00959A"/>
</g>
</svg>
